HIERARCHY
ROOT Hips
{
	OFFSET 0.00 0.00 0.00
	CHANNELS 6 Xposition Yposition Zposition Xrotation Yrotation Zrotation
	JOINT Spine
	{
		OFFSET 0.00000 1.72418 2.58627
		CHANNELS 3 Xrotation Yrotation Zrotation
		JOINT Spine1
		{
			OFFSET 0.00000 0.59880 3.39597
			CHANNELS 3 Xrotation Yrotation Zrotation
			JOINT Spine2
			{
				OFFSET 0.00000 0.30055 3.43524
				CHANNELS 3 Xrotation Yrotation Zrotation
				JOINT Spine3
				{
					OFFSET 0.00000 0.00000 3.44836
					CHANNELS 3 Xrotation Yrotation Zrotation
					JOINT Neck
					{
						OFFSET 0.00000 -1.29313 9.05195
						CHANNELS 3 Xrotation Yrotation Zrotation
						JOINT Head
						{
							OFFSET 0.00000 -0.82335 4.66946
							CHANNELS 3 Xrotation Yrotation Zrotation
							End Site
							{
								OFFSET 0.00000 0.00001 5.58203
							}
						}
					}
					JOINT RightShoulder
					{
						OFFSET -1.18828 -1.98046 6.41673
						CHANNELS 3 Xrotation Yrotation Zrotation
						JOINT RightArm
						{
							OFFSET -5.90180 0.00000 0.00000
							CHANNELS 3 Xrotation Yrotation Zrotation
							JOINT RightForeArm
							{
								OFFSET -11.45951 0.00000 0.00000
								CHANNELS 3 Xrotation Yrotation Zrotation
								JOINT RightHand
								{
									OFFSET -10.63451 0.00000 0.00000
									CHANNELS 3 Xrotation Yrotation Zrotation
									JOINT RightHandEnd
									{
										OFFSET -2.86944 0.00000 0.00000
										CHANNELS 3 Xrotation Yrotation Zrotation
										End Site
										{
											OFFSET -2.86944 0.00000 0.00000
										}
									}
									JOINT RightHandThumb1
									{
										OFFSET -1.14778 -1.91296 -0.76518
										CHANNELS 3 Yrotation Xrotation Zrotation
										End Site
										{
											OFFSET -2.77167 -0.74267 0.00000
										}
									}
								}
							}
						}
					}
					JOINT LeftShoulder
					{
						OFFSET 1.18828 -1.98046 6.41673
						CHANNELS 3 Xrotation Yrotation Zrotation
						JOINT LeftArm
						{
							OFFSET 5.90180 0.00000 0.00000
							CHANNELS 3 Xrotation Yrotation Zrotation
							JOINT LeftForeArm
							{
								OFFSET 11.45951 0.00000 0.00000
								CHANNELS 3 Xrotation Yrotation Zrotation
								JOINT LeftHand
								{
									OFFSET 10.63451 0.00000 0.00000
									CHANNELS 3 Xrotation Yrotation Zrotation
									JOINT LeftHandEnd
									{
										OFFSET 2.86944 0.00000 0.00000
										CHANNELS 3 Xrotation Yrotation Zrotation
										End Site
										{
											OFFSET 2.86944 0.00000 0.00000
										}
									}
									JOINT LeftHandThumb1
									{
										OFFSET 1.14778 -1.91296 -0.76518
										CHANNELS 3 Yrotation Xrotation Zrotation
										End Site
										{
											OFFSET 2.77167 -0.74267 0.00000
										}
									}
								}
							}
						}
					}
				}
			}
		}
	}
	JOINT RightUpLeg
	{
		OFFSET -3.52524 0.00000 -1.02984
		CHANNELS 3 Xrotation Yrotation Zrotation
		JOINT RightLeg
		{
			OFFSET 0.00001 0.00000 -17.80965
			CHANNELS 3 Xrotation Yrotation Zrotation
			JOINT RightFoot
			{
				OFFSET 0.00001 0.00000 -17.00908
				CHANNELS 3 Xrotation Yrotation Zrotation
				JOINT RightToeBase
				{
					OFFSET 0.00000 -5.55853 -2.02314
					CHANNELS 3 Xrotation Yrotation Zrotation
					End Site
					{
						OFFSET 0.00000 -2.85188 -0.00000
					}
				}
			}
		}
	}
	JOINT LeftUpLeg
	{
		OFFSET 3.52524 0.00000 -1.02984
		CHANNELS 3 Xrotation Yrotation Zrotation
		JOINT LeftLeg
		{
			OFFSET 0.00001 0.00000 -17.80965
			CHANNELS 3 Xrotation Yrotation Zrotation
			JOINT LeftFoot
			{
				OFFSET 0.00001 0.00000 -17.00908
				CHANNELS 3 Xrotation Yrotation Zrotation
				JOINT LeftToeBase
				{
					OFFSET 0.00000 -5.55853 -2.02314
					CHANNELS 3 Xrotation Yrotation Zrotation
					End Site
					{
						OFFSET 0.00000 -2.85188 -0.00000
					}
				}
			}
		}
	}
}
MOTION
Frames: 9
Frame Time: 0.008342
 -1.4258 12.1992 36.6051 5.0061 -0.1568 -173.8211 -0.4953 1.4114 1.3626 0.4621 0.9179 0.4675 -2.8332 2.4602 5.9447 -0.1609 -0.2591 0.5992 6.3898 5.2786 0.5728 -0.9447 0.2030 -6.0290 -5.1043 8.4641 8.5333 -50.5395 -5.7858 -1.8402 0.0000 0.0000 15.8584 -9.8006 48.2288 -26.3551 -0.0000 -0.0000 -0.0000 0.0000 -0.0000 0.0000 -21.9675 -24.9653 -7.9332 -50.3574 -14.9036 -31.0897 -0.0000 -0.0000 -52.7561 11.9279 -43.1399 -18.1527 0.0000 -0.0000 -0.0000 -0.0000 -0.0000 0.0000 13.9342 2.6617 -12.0759 33.2615 0.0000 0.0000 -10.4562 3.6907 -8.1344 -22.3291 0.0000 -0.0000 -21.3149 -3.0098 -2.5243 29.9913 0.0000 0.0000 -4.5046 4.2361 1.5233 -6.7461 0.0000 -0.0000
 -1.5208 12.4900 36.6557 4.9161 0.0060 -173.8995 -0.6476 1.4080 1.3823 0.3990 0.8245 0.4770 -2.8642 2.7225 6.2470 -0.1461 -0.1780 0.5451 6.3936 5.4664 0.7920 -0.9157 0.1640 -5.8476 -5.4266 8.8144 8.9964 -50.0793 -5.2882 -0.8414 0.0000 0.0000 15.8559 -9.6643 48.0927 -26.1359 0.0000 -0.0000 0.0000 0.0000 -0.0000 -0.0000 -21.8213 -24.6439 -7.5140 -50.1120 -15.0531 -30.9831 -0.0000 -0.0000 -51.7763 11.0555 -43.2961 -17.4984 -0.0000 0.0000 -0.0000 0.0000 0.0000 0.0000 13.8083 3.0695 -12.2383 33.8981 0.0000 0.0000 -8.9836 4.1459 -7.9452 -23.2251 0.0000 -0.0000 -20.8514 -2.8401 -2.1689 29.9828 0.0000 0.0000 -4.9135 4.3203 1.3745 -6.0573 0.0000 -0.0000
 -1.6128 12.7774 36.7086 4.8265 0.1742 -173.9773 -0.7881 1.4077 1.3964 0.3416 0.7401 0.4876 -2.9025 2.9902 6.5350 -0.1336 -0.0972 0.4851 6.3857 5.6454 1.0175 -0.8914 0.1194 -5.6644 -5.7495 9.1428 9.4803 -49.6468 -4.7959 0.1444 0.0000 0.0000 15.8714 -9.5292 47.9500 -25.9099 0.0000 -0.0000 0.0000 -0.0000 -0.0000 -0.0000 -21.6933 -24.3146 -7.0847 -49.8500 -15.2259 -30.8890 -0.0000 -0.0000 -50.8114 10.2883 -43.4211 -16.7866 0.0000 -0.0000 -0.0000 -0.0000 0.0000 -0.0000 13.6338 3.4801 -12.4029 34.5963 0.0000 0.0000 -7.4684 4.6711 -7.7832 -23.8868 0.0000 -0.0000 -20.3622 -2.6624 -1.8371 29.9039 0.0000 0.0000 -5.2936 4.4067 1.2381 -5.4593 0.0000 -0.0000
 -1.7016 13.0605 36.7627 4.7285 0.3435 -174.0479 -0.9300 1.4168 1.4095 0.2943 0.6414 0.4921 -2.9418 3.2793 6.8063 -0.1273 -0.0215 0.4204 6.3648 5.8271 1.2504 -0.8748 0.0660 -5.4841 -6.0685 9.4544 9.9812 -49.2358 -4.3063 1.1238 0.0000 0.0000 15.8962 -9.4098 47.8035 -25.6780 -0.0000 0.0000 -0.0000 -0.0000 -0.0000 -0.0000 -21.5831 -23.9726 -6.6413 -49.5792 -15.4136 -30.8103 -0.0000 -0.0000 -49.8568 9.6255 -43.5154 -16.0428 -0.0000 0.0000 0.0000 0.0000 0.0000 0.0000 13.3955 3.8879 -12.5687 35.3675 0.0000 0.0000 -5.9279 5.2518 -7.6627 -24.2593 0.0000 -0.0000 -19.8679 -2.4767 -1.5381 29.7698 0.0000 0.0000 -5.6513 4.4930 1.1201 -4.9417 0.0000 -0.0000
 -1.7865 13.3391 36.8178 4.6413 0.4978 -174.1021 -1.0463 1.4013 1.4161 0.2524 0.5715 0.5014 -2.9857 3.5546 7.0495 -0.1238 0.0574 0.3491 6.3252 6.0111 1.4901 -0.8588 0.0098 -5.3063 -6.3833 9.7620 10.4995 -48.8559 -3.8234 2.0838 0.0000 0.0000 15.9319 -9.2947 47.6509 -25.4457 -0.0000 0.0000 -0.0000 0.0000 -0.0000 -0.0000 -21.4848 -23.6267 -6.1902 -49.3064 -15.6137 -30.7281 -0.0000 -0.0000 -48.9146 9.0730 -43.5905 -15.2832 0.0000 -0.0000 -0.0000 0.0000 -0.0000 0.0000 13.1139 4.2669 -12.7274 36.2034 0.0000 0.0000 -4.3730 5.8647 -7.6086 -24.3044 0.0000 -0.0000 -19.3604 -2.2991 -1.2843 29.5975 0.0000 0.0000 -5.9999 4.5788 1.0221 -4.4891 0.0000 -0.0000
 -1.8685 13.6135 36.8732 4.5724 0.6552 -174.1397 -1.1352 1.3895 1.4188 0.2227 0.4932 0.5069 -3.0305 3.8440 7.2752 -0.1255 0.1349 0.2723 6.2695 6.2069 1.7341 -0.8511 -0.0517 -5.1343 -6.6933 10.0736 11.0302 -48.4964 -3.3461 3.0266 0.0000 0.0000 15.9726 -9.1988 47.4897 -25.2102 0.0000 0.0000 0.0000 0.0000 0.0000 0.0000 -21.4075 -23.2778 -5.7439 -49.0211 -15.8284 -30.6291 -0.0000 -0.0000 -47.9852 8.5862 -43.6468 -14.5468 0.0000 0.0000 0.0000 0.0000 -0.0000 0.0000 12.7966 4.6382 -12.8855 37.1125 0.0000 0.0000 -2.8347 6.4868 -7.6284 -23.9944 0.0000 -0.0000 -18.8285 -2.1103 -1.0729 29.3885 0.0000 0.0000 -6.3411 4.6642 0.9511 -4.0822 0.0000 -0.0000
 -1.9470 13.8830 36.9280 4.5212 0.7993 -174.1603 -1.1962 1.3625 1.4165 0.2037 0.4161 0.5110 -3.0749 4.1359 7.4827 -0.1316 0.2130 0.1912 6.1962 6.4195 1.9824 -0.8514 -0.1167 -4.9697 -6.9950 10.3983 11.5711 -48.1577 -2.8727 3.9504 0.0000 0.0000 16.0151 -9.1224 47.3200 -24.9719 -0.0000 0.0000 -0.0000 0.0000 -0.0000 0.0000 -21.3474 -22.9254 -5.3043 -48.7268 -16.0552 -30.5062 -0.0000 -0.0000 -47.0661 8.1395 -43.6926 -13.8565 0.0000 -0.0000 -0.0000 -0.0000 0.0000 0.0000 12.4392 4.9813 -13.0299 38.0915 0.0000 0.0000 -1.3361 7.0903 -7.7462 -23.3301 0.0000 -0.0000 -18.2832 -1.9287 -0.9018 29.1611 0.0000 0.0000 -6.6842 4.7515 0.8999 -3.7023 0.0000 -0.0000
 -2.0221 14.1477 36.9815 4.4880 0.9296 -174.1674 -1.2302 1.3193 1.4095 0.1951 0.3409 0.5142 -3.1174 4.4249 7.6758 -0.1405 0.2918 0.1074 6.1045 6.6539 2.2350 -0.8610 -0.1836 -4.8146 -7.2871 10.7440 12.1207 -47.8350 -2.4000 4.8550 0.0000 0.0000 16.0558 -9.0691 47.1408 -24.7279 -0.0000 0.0000 -0.0000 0.0000 -0.0000 0.0000 -21.3026 -22.5685 -4.8728 -48.4228 -16.2923 -30.3547 -0.0000 -0.0000 -46.1535 7.6964 -43.7352 -13.2360 0.0000 0.0000 0.0000 0.0000 -0.0000 -0.0000 12.0403 5.2958 -13.1549 39.1390 0.0000 0.0000 0.0916 7.6494 -7.9751 -22.3392 0.0000 -0.0000 -17.7266 -1.7576 -0.7628 28.9243 0.0000 0.0000 -7.0317 4.8434 0.8634 -3.3332 0.0000 -0.0000
 -2.0931 14.4072 37.0332 4.4739 1.0332 -174.1638 -1.2367 1.2524 1.3978 0.1959 0.2602 0.5153 -3.1563 4.7121 7.8603 -0.1531 0.3693 0.0210 5.9966 6.9147 2.4920 -0.8829 -0.2535 -4.6710 -7.5644 11.1238 12.6751 -47.5398 -1.9338 5.7320 0.0000 0.0000 16.0997 -9.0224 46.9515 -24.4826 -0.0000 0.0000 -0.0000 0.0000 -0.0000 -0.0000 -21.2754 -22.2091 -4.4556 -48.1070 -16.5327 -30.1638 -0.0000 -0.0000 -45.2510 7.2228 -43.7746 -12.7026 0.0000 -0.0000 -0.0000 -0.0000 0.0000 -0.0000 11.6003 5.5639 -13.2479 40.2442 0.0000 0.0000 1.4219 8.1402 -8.3332 -21.0788 0.0000 -0.0000 -17.1641 -1.6148 -0.6462 28.6912 0.0000 0.0000 -7.3868 4.9422 0.8283 -2.9637 0.0000 -0.0000
